<svg width="46" height="46" viewBox="0 0 46 46" fill="none" xmlns="http://www.w3.org/2000/svg">
<path d="M30.9053 22.4366C30.9053 21.9891 30.7275 21.5599 30.411 21.2434C30.0945 20.9269 29.6653 20.7491 29.2178 20.7491C28.7702 20.7491 28.341 20.9269 28.0245 21.2434C27.7081 21.5599 27.5303 21.9891 27.5303 22.4366V26.9366C27.5303 27.3842 27.7081 27.8134 28.0245 28.1299C28.341 28.4464 28.7702 28.6241 29.2178 28.6241C29.6653 28.6241 30.0945 28.4464 30.411 28.1299C30.7275 27.8134 30.9053 27.3842 30.9053 26.9366V22.4366Z" fill="#138B00"/>
<path d="M22.4674 20.7491C22.915 20.7491 23.3442 20.9269 23.6606 21.2434C23.9771 21.5599 24.1549 21.9891 24.1549 22.4366V26.9366C24.1549 27.3842 23.9771 27.8134 23.6606 28.1299C23.3442 28.4464 22.915 28.6241 22.4674 28.6241C22.0199 28.6241 21.5906 28.4464 21.2742 28.1299C20.9577 27.8134 20.7799 27.3842 20.7799 26.9366V22.4366C20.7799 21.9891 20.9577 21.5599 21.2742 21.2434C21.5906 20.9269 22.0199 20.7491 22.4674 20.7491Z" fill="#138B00"/>
<path d="M17.4066 22.4366C17.4066 21.9891 17.2288 21.5599 16.9124 21.2434C16.5959 20.9269 16.1667 20.7491 15.7191 20.7491C15.2716 20.7491 14.8423 20.9269 14.5259 21.2434C14.2094 21.5599 14.0316 21.9891 14.0316 22.4366V26.9366C14.0316 27.3842 14.2094 27.8134 14.5259 28.1299C14.8423 28.4464 15.2716 28.6241 15.7191 28.6241C16.1667 28.6241 16.5959 28.4464 16.9124 28.1299C17.2288 27.8134 17.4066 27.3842 17.4066 26.9366V22.4366Z" fill="#138B00"/>
<path d="M8.96875 30.8759C9.4163 30.8759 9.84553 31.0536 10.162 31.3701C10.4785 31.6866 10.6562 32.1158 10.6562 32.5634V38.1884C10.6562 38.6359 10.4785 39.0651 10.162 39.3816C9.84553 39.6981 9.4163 39.8759 8.96875 39.8759C8.5212 39.8759 8.09197 39.6981 7.77551 39.3816C7.45904 39.0651 7.28125 38.6359 7.28125 38.1884V32.5634C7.28125 32.1158 7.45904 31.6866 7.77551 31.3701C8.09197 31.0536 8.5212 30.8759 8.96875 30.8759Z" fill="#138B00"/>
<path d="M38.7812 32.5634C38.7812 32.1158 38.6035 31.6866 38.287 31.3701C37.9705 31.0536 37.5413 30.8759 37.0938 30.8759C36.6462 30.8759 36.217 31.0536 35.9005 31.3701C35.584 31.6866 35.4062 32.1158 35.4062 32.5634V38.1884C35.4062 38.6359 35.584 39.0651 35.9005 39.3816C36.217 39.6981 36.6462 39.8759 37.0938 39.8759C37.5413 39.8759 37.9705 39.6981 38.287 39.3816C38.6035 39.0651 38.7812 38.6359 38.7812 38.1884V32.5634Z" fill="#138B00"/>
<path d="M22.4683 0.5L30.9058 0.5C31.2041 0.5 31.4903 0.618527 31.7013 0.829505C31.9122 1.04048 32.0308 1.32663 32.0308 1.625V6.125C32.0308 6.42337 31.9122 6.70952 31.7013 6.9205C31.4903 7.13147 31.2041 7.25 30.9058 7.25H24.1558V9.5405C28.128 9.82495 31.8449 11.6036 34.5585 14.5184C37.272 17.4331 38.7807 21.2676 38.7808 25.25H40.4683C41.8109 25.25 43.0986 25.7834 44.048 26.7328C44.9974 27.6822 45.5308 28.9698 45.5308 30.3125V43.8125C45.5308 44.2601 45.353 44.6893 45.0365 45.0057C44.72 45.3222 44.2908 45.5 43.8433 45.5H2.21826C1.77071 45.5 1.34149 45.3222 1.02502 45.0057C0.708551 44.6893 0.530762 44.2601 0.530762 43.8125L0.530762 30.3125C0.530762 28.9698 1.06413 27.6822 2.01353 26.7328C2.96294 25.7834 4.2506 25.25 5.59326 25.25H7.28076C7.28073 21.4622 8.64535 17.8012 11.1247 14.9376C13.604 12.074 17.032 10.1995 20.7808 9.6575V2.1875C20.7808 1.73995 20.9586 1.31072 21.275 0.994257C21.5915 0.677789 22.0207 0.5 22.4683 0.5ZM23.0308 12.875C19.7487 12.875 16.6011 14.1788 14.2803 16.4996C11.9596 18.8203 10.6558 21.9679 10.6558 25.25V26.9375C10.6558 27.3851 10.478 27.8143 10.1615 28.1307C9.84504 28.4472 9.41581 28.625 8.96826 28.625H5.59326C5.14571 28.625 4.71649 28.8028 4.40002 29.1193C4.08355 29.4357 3.90576 29.8649 3.90576 30.3125L3.90576 42.125H17.4058V35.9375C17.4058 35.4899 17.5836 35.0607 17.9 34.7443C18.2165 34.4278 18.6457 34.25 19.0933 34.25H26.9683C27.4158 34.25 27.845 34.4278 28.1615 34.7443C28.478 35.0607 28.6558 35.4899 28.6558 35.9375V42.125H42.1558V30.3125C42.1558 29.8649 41.978 29.4357 41.6615 29.1193C41.345 28.8028 40.9158 28.625 40.4683 28.625H37.0933C36.6457 28.625 36.2165 28.4472 35.9 28.1307C35.5835 27.8143 35.4058 27.3851 35.4058 26.9375V25.25C35.4058 21.9679 34.102 18.8203 31.7812 16.4996C29.4604 14.1788 26.3128 12.875 23.0308 12.875ZM25.2808 37.625H20.7808V42.125H25.2808V37.625Z" fill="#138B00"/>
</svg>
