<svg width="49" height="48" viewBox="0 0 49 48" fill="none" xmlns="http://www.w3.org/2000/svg">
<path d="M24.6897 1.5C12.2629 1.5 2.1897 11.5733 2.1897 24C2.1897 36.4267 12.2629 46.5 24.6897 46.5C37.1164 46.5 47.1897 36.4267 47.1897 24C47.1897 11.5733 37.1164 1.5 24.6897 1.5Z" stroke="#3DC50E" stroke-width="2.5" stroke-linecap="round" stroke-linejoin="round"/>
<path d="M15.6882 44.628V28.5L24.6882 12.75L33.6882 28.5V44.628" stroke="#3DC50E" stroke-width="2.5" stroke-linecap="round" stroke-linejoin="round"/>
<path d="M15.6882 28.5007C15.6882 28.5007 18.224 30.7507 20.1882 30.7507C22.1525 30.7507 24.6882 28.5007 24.6882 28.5007C24.6882 28.5007 27.224 30.7507 29.1882 30.7507C31.1525 30.7507 33.6882 28.5007 33.6882 28.5007" stroke="#3DC50E" stroke-width="2.5" stroke-linecap="round" stroke-linejoin="round"/>
</svg>
