<svg width="44" height="46" viewBox="0 0 44 46" fill="none" xmlns="http://www.w3.org/2000/svg">
<path d="M31.3024 0.564613C31.6206 0.669067 31.8839 0.894204 32.0342 1.19051C32.1846 1.48681 32.2097 1.83001 32.1041 2.14463L30.8396 5.89466C30.7336 6.20961 30.5054 6.47004 30.2051 6.61866C29.9049 6.76728 29.5573 6.79193 29.2387 6.68716C28.9201 6.5824 28.6566 6.35682 28.5063 6.06004C28.3559 5.76326 28.331 5.4196 28.4369 5.10465L29.7015 1.35462C29.754 1.19879 29.8372 1.05472 29.9461 0.930662C30.055 0.806603 30.1876 0.704984 30.3363 0.631614C30.485 0.558244 30.6468 0.514562 30.8126 0.503065C30.9783 0.491569 31.1448 0.512483 31.3024 0.564613ZM40.6523 5.13465C40.7698 5.01843 40.8631 4.88046 40.9267 4.72861C40.9904 4.57676 41.0231 4.41401 41.0231 4.24964C41.0231 4.08528 40.9904 3.92253 40.9267 3.77068C40.8631 3.61883 40.7698 3.48086 40.6523 3.36464C40.5347 3.24842 40.3951 3.15622 40.2415 3.09333C40.0879 3.03043 39.9233 2.99805 39.757 2.99805C39.5907 2.99805 39.4261 3.03043 39.2725 3.09333C39.1188 3.15622 38.9793 3.24842 38.8617 3.36464L33.8036 8.36468C33.686 8.48074 33.5927 8.61855 33.529 8.77025C33.4653 8.92194 33.4325 9.08456 33.4324 9.2488C33.4322 9.58051 33.5652 9.89873 33.8023 10.1334C34.0394 10.3682 34.3612 10.5002 34.6967 10.5004C35.0323 10.5006 35.3542 10.3691 35.5916 10.1347L40.6497 5.13465H40.6523ZM14.7345 5.86216C15.0876 5.12791 15.6164 4.48984 16.2752 4.00322C16.934 3.5166 17.703 3.19612 18.5153 3.06954C19.3277 2.94296 20.1591 3.01411 20.9373 3.27681C21.7156 3.53951 22.4174 3.98585 22.9818 4.57715L39.6407 22.0273C40.1966 22.6095 40.6029 23.3152 40.8255 24.085C41.0482 24.8547 41.0805 25.6661 40.9199 26.4508C40.7593 27.2355 40.4105 27.9706 39.9027 28.5943C39.3949 29.218 38.743 29.712 38.0018 30.0349L28.0449 34.3749C28.414 35.6761 28.4736 37.0442 28.2189 38.3719C27.9642 39.6997 27.4022 40.9512 26.5768 42.0286C25.7515 43.1059 24.6851 43.9799 23.4613 44.5821C22.2374 45.1843 20.8892 45.4985 19.522 45.5C18.0153 45.5008 16.5333 45.1212 15.2165 44.3971C13.8998 43.673 12.792 42.6284 11.9981 41.3625L8.96325 42.6825C8.26606 42.9864 7.49246 43.0757 6.7432 42.9388C5.99393 42.8019 5.30373 42.4451 4.76249 41.915L1.67199 38.8874C1.11317 38.3403 0.740209 37.6349 0.604733 36.869C0.469257 36.1031 0.577963 35.3146 0.915805 34.6124L14.7345 5.86466V5.86216ZM14.3451 40.3375C15.1845 41.522 16.4134 42.3821 17.8225 42.7712C19.2316 43.1603 20.7335 43.0543 22.0724 42.4713C23.4113 41.8883 24.5042 40.8643 25.1649 39.574C25.8255 38.2836 26.013 36.8067 25.6955 35.3949L14.3451 40.3375ZM21.1432 6.29216C20.8608 5.99687 20.5098 5.77407 20.1207 5.64307C19.7316 5.51207 19.316 5.4768 18.91 5.54033C18.5039 5.60386 18.1197 5.76426 17.7905 6.00766C17.4613 6.25105 17.1971 6.5701 17.0208 6.93717L3.19954 35.6874C3.08761 35.9212 3.05183 36.1836 3.09712 36.4384C3.14242 36.6932 3.26657 36.9278 3.45244 37.1099L6.54295 40.135C6.72303 40.3116 6.95271 40.4306 7.20212 40.4766C7.45154 40.5225 7.70916 40.4932 7.94151 40.3925L36.9801 27.7498C37.3506 27.5886 37.6766 27.3418 37.9306 27.0302C38.1846 26.7186 38.3592 26.3512 38.4398 25.959C38.5203 25.5668 38.5044 25.1612 38.3934 24.7764C38.2825 24.3915 38.0796 24.0386 37.802 23.7473L21.1432 6.29716V6.29216ZM38.4899 12.9997C38.1546 12.9997 37.8329 13.1314 37.5958 13.3658C37.3586 13.6003 37.2254 13.9182 37.2254 14.2497C37.2254 14.5813 37.3586 14.8992 37.5958 15.1336C37.8329 15.368 38.1546 15.4997 38.4899 15.4997H42.2835C42.6189 15.4997 42.9405 15.368 43.1777 15.1336C43.4148 14.8992 43.548 14.5813 43.548 14.2497C43.548 13.9182 43.4148 13.6003 43.1777 13.3658C42.9405 13.1314 42.6189 12.9997 42.2835 12.9997H38.4899Z" fill="#FF9191"/>
</svg>
