<svg width="52" height="46" viewBox="0 0 52 46" fill="none" xmlns="http://www.w3.org/2000/svg">
<path d="M26.7903 0.500003C26.5501 0.499574 26.3128 0.55304 26.0959 0.656465C25.879 0.75989 25.6881 0.91064 25.5373 1.09761L25.2513 1.30967C19.7089 -0.406054 13.3858 0.853428 8.98405 5.09454C7.14074 6.84363 5.76947 9.03029 4.99766 11.4513C4.22585 13.8724 4.07855 16.4492 4.56944 18.9424C4.51488 18.9906 4.46132 19.0399 4.40879 19.0902L1.90589 21.4999C1.42173 21.9592 1.03615 22.5123 0.772663 23.1255C0.509175 23.7386 0.373291 24.399 0.373291 25.0663C0.373291 25.7337 0.509175 26.3941 0.772663 27.0072C1.03615 27.6204 1.42173 28.1734 1.90589 28.6327C3.18465 29.8665 4.95821 30.3292 6.60646 30.0207C6.80888 30.9493 7.28118 31.8328 8.0298 32.5526C9.01618 33.5036 10.2982 33.9952 11.5898 34.0305C11.6251 35.2739 12.136 36.5077 13.1224 37.4588C14.1087 38.4098 15.3939 38.9046 16.6855 38.9367C16.7177 40.1801 17.2317 41.4171 18.2181 42.3682C19.1624 43.2643 20.3994 43.7881 21.7002 43.8424C23.0009 43.8968 24.2773 43.478 25.2931 42.6638L26.6971 44.0132C28.7534 45.9956 32.0885 45.9956 34.1448 44.0132C35.128 43.0686 35.6388 41.8412 35.6838 40.601C36.969 40.5625 38.2381 40.0709 39.2181 39.1263C40.2012 38.1785 40.7121 36.9511 40.7506 35.7109C42.0565 35.6651 43.2997 35.1401 44.2431 34.2361C45.0239 33.4875 45.5058 32.559 45.6922 31.5887C46.5192 31.7337 47.3687 31.6825 48.1723 31.4392C48.9759 31.1958 49.7112 30.7672 50.3189 30.1878C50.8035 29.7285 51.1895 29.1752 51.4533 28.5618C51.7171 27.9483 51.8532 27.2876 51.8532 26.6198C51.8532 25.9521 51.7171 25.2913 51.4533 24.6779C51.1895 24.0644 50.8035 23.5112 50.3189 23.0518L48.0055 20.8252L48.4778 19.0581C49.4332 15.4454 48.9495 11.6028 47.1284 8.33964C44.4423 3.50091 39.2309 0.512854 33.5954 0.512854L29.6434 0.512854C29.4733 0.50442 29.3029 0.500135 29.1326 0.500003H26.7903ZM34.6717 12.4394L42.3989 19.8838L42.4085 19.8903L48.0023 25.2816C48.184 25.4539 48.3287 25.6614 48.4276 25.8915C48.5265 26.1216 48.5775 26.3694 48.5775 26.6198C48.5775 26.8702 48.5265 27.118 48.4276 27.3481C48.3287 27.5782 48.184 27.7857 48.0023 27.958C47.627 28.3135 47.1297 28.5116 46.6127 28.5116C46.0958 28.5116 45.5985 28.3135 45.2231 27.958L40.9788 23.8711C40.6677 23.5726 40.2532 23.406 39.8221 23.406C39.391 23.406 38.9765 23.5726 38.6654 23.8711L38.6205 23.9097C38.469 24.0532 38.3483 24.2261 38.2659 24.4177C38.1834 24.6094 38.1409 24.8159 38.1409 25.0246C38.1409 25.2332 38.1834 25.4397 38.2659 25.6314C38.3483 25.8231 38.469 25.996 38.6205 26.1395L41.9298 29.3267C42.7009 30.0657 42.7009 31.2674 41.9298 32.0096C41.5886 32.3329 41.1454 32.5274 40.6764 32.5597C40.2073 32.5919 39.7417 32.4599 39.3594 32.1863C39.0404 31.9558 38.6506 31.8443 38.258 31.8713C37.8653 31.8983 37.4945 32.0621 37.21 32.3341C36.9319 32.5999 36.764 32.9606 36.7396 33.3445C36.7152 33.7285 36.8361 34.1075 37.0782 34.4064C37.3666 34.7677 37.5089 35.2241 37.4767 35.6853C37.4446 36.1464 37.2405 36.5787 36.9047 36.8965C36.5586 37.2247 36.1077 37.4201 35.6316 37.4484C35.1555 37.4766 34.6847 37.3357 34.3022 37.0507C33.9848 36.8126 33.5934 36.6942 33.1972 36.7166C32.801 36.7389 32.4254 36.9005 32.1367 37.1728C31.855 37.4383 31.6842 37.8005 31.6586 38.1867C31.633 38.5729 31.7544 38.9545 31.9985 39.2548C32.2937 39.6209 32.4401 40.0848 32.4086 40.554C32.377 41.0232 32.1698 41.4633 31.8282 41.7866C31.4479 42.1475 30.9436 42.3487 30.4194 42.3487C29.8951 42.3487 29.3908 42.1475 29.0105 41.7866L27.6193 40.4468L28.1269 39.9584C28.6116 39.4991 28.9976 38.9458 29.2614 38.3324C29.5252 37.7189 29.6612 37.0582 29.6612 36.3904C29.6612 35.7227 29.5252 35.0619 29.2614 34.4485C28.9976 33.835 28.6116 33.2818 28.1269 32.8224C27.1667 31.9022 25.8966 31.3749 24.5669 31.3445C24.5279 30.0435 23.9772 28.8104 23.0344 27.913C22.0728 26.9932 20.8015 26.467 19.4712 26.4383C19.4322 25.1373 18.8814 23.9042 17.9386 23.0068C17.3213 22.4193 16.573 21.9873 15.7556 21.7465C14.9382 21.5057 14.0752 21.463 13.238 21.622C13.0262 20.6552 12.5306 19.7736 11.8147 19.0902C11.2658 18.5665 10.6118 18.1655 9.89611 17.914C9.18039 17.6625 8.41934 17.5662 7.66352 17.6315C7.4104 15.7488 7.60751 13.8329 8.23865 12.0411C8.86979 10.2493 9.91697 8.63281 11.2942 7.32434C12.6858 5.99478 14.3544 4.98957 16.1803 4.38076C18.0061 3.77196 19.9441 3.57463 21.8552 3.80293L17.1803 7.24081C16.5822 7.67542 16.0783 8.22676 15.6992 8.86152C15.3201 9.49627 15.0735 10.2013 14.9744 10.934C14.8753 11.6667 14.9257 12.4119 15.1227 13.1245C15.3196 13.8372 15.6588 14.5026 16.12 15.0804C17.0528 16.25 18.4005 17.0148 19.8829 17.2159C21.3652 17.417 22.868 17.0388 24.0786 16.16L29.1422 12.4426L34.6685 12.4426L34.6717 12.4394ZM19.0824 9.82724L27.4104 3.71297H29.1326C29.2901 3.71213 29.4476 3.71642 29.6049 3.72582H33.5954C38.1064 3.72582 42.2222 6.11948 44.3203 9.90114C45.7404 12.4587 46.1131 15.4307 45.3709 18.2356L45.3613 18.2677L36.4935 9.69872C36.1929 9.39723 35.785 9.22736 35.3593 9.22642L28.6121 9.22642C28.2711 9.22707 27.9391 9.33622 27.6642 9.53807L22.1765 13.5671C21.6374 13.9531 20.9713 14.1185 20.3143 14.0296C19.6573 13.9406 19.0592 13.6039 18.6422 13.0884C18.4479 12.8491 18.3047 12.5725 18.2213 12.2757C18.1379 11.9789 18.1162 11.6682 18.1574 11.3627C18.1987 11.0572 18.302 10.7633 18.4611 10.4993C18.6202 10.2352 18.8316 10.0065 19.0824 9.82724ZM20.5025 37.4909L20.5347 37.4588L23.0344 35.049L23.0633 35.0233C23.4407 34.6801 23.934 34.4924 24.4441 34.4977C24.9542 34.5031 25.4434 34.7012 25.8136 35.0522C25.9953 35.2246 26.14 35.4321 26.2389 35.6621C26.3378 35.8922 26.3888 36.14 26.3888 36.3904C26.3888 36.6409 26.3378 36.8887 26.2389 37.1187C26.14 37.3488 25.9953 37.5563 25.8136 37.7286L23.3107 40.1384C22.9353 40.4938 22.438 40.6919 21.9211 40.6919C21.4041 40.6919 20.9068 40.4938 20.5315 40.1384C20.3521 39.9686 20.2087 39.7646 20.1097 39.5383C20.0107 39.3121 19.9582 39.0683 19.9552 38.8214C19.9522 38.5745 19.9988 38.3295 20.0923 38.101C20.1858 37.8724 20.3242 37.6649 20.4993 37.4909H20.5025ZM20.7499 32.7935L20.7178 32.8224L18.2181 35.2322L18.186 35.2611C17.8083 35.6029 17.3155 35.7895 16.8061 35.7836C16.2968 35.7776 15.8085 35.5795 15.4389 35.229C15.2592 35.0585 15.1157 34.8535 15.017 34.6264C14.9182 34.3992 14.8663 34.1545 14.8642 33.9068C14.8621 33.6591 14.9099 33.4135 15.0048 33.1847C15.0996 32.9559 15.2396 32.7486 15.4164 32.575L15.4389 32.5526L17.9386 30.1428L17.9611 30.1203C18.3381 29.7744 18.8322 29.5844 19.3439 29.5886C19.8555 29.5927 20.3465 29.7908 20.7178 30.1428C20.8976 30.3126 21.0415 30.5169 21.1407 30.7434C21.24 30.9699 21.2927 31.2141 21.2957 31.4614C21.2987 31.7087 21.2519 31.954 21.1582 32.1829C21.0644 32.4118 20.9256 32.6194 20.7499 32.7935ZM15.6253 27.913L13.1224 30.3228L13.0999 30.3452C12.7229 30.6911 12.2287 30.8812 11.7171 30.877C11.2054 30.8728 10.7144 30.6748 10.3431 30.3228C10.1614 30.1504 10.0167 29.9429 9.91782 29.7128C9.81893 29.4828 9.76793 29.235 9.76793 28.9846C9.76793 28.7341 9.81893 28.4863 9.91782 28.2563C10.0167 28.0262 10.1614 27.8187 10.3431 27.6464L12.8428 25.2366C13.2183 24.8802 13.7163 24.6815 14.234 24.6815C14.7518 24.6815 15.2497 24.8802 15.6253 25.2366C15.8054 25.4072 15.9493 25.6123 16.0484 25.8398C16.1474 26.0672 16.1995 26.3123 16.2016 26.5604C16.2037 26.8085 16.1558 27.0544 16.0606 27.2835C15.9654 27.5126 15.825 27.7202 15.6477 27.8938L15.6253 27.913ZM9.50134 23.9964L7.00165 26.4061C6.6265 26.7633 6.12839 26.9625 5.61044 26.9625C5.09249 26.9625 4.59437 26.7633 4.21923 26.4061C4.03701 26.2338 3.89187 26.0261 3.79268 25.7957C3.69348 25.5653 3.64232 25.3172 3.64232 25.0663C3.64232 24.8155 3.69348 24.5673 3.79268 24.337C3.89187 24.1066 4.03701 23.8989 4.21923 23.7265L6.72213 21.3168C7.09748 20.9614 7.59478 20.7632 8.11173 20.7632C8.62869 20.7632 9.12599 20.9614 9.50134 21.3168C9.68355 21.4892 9.8287 21.6969 9.92789 21.9272C10.0271 22.1576 10.0782 22.4058 10.0782 22.6566C10.0782 22.9074 10.0271 23.1556 9.92789 23.386C9.8287 23.6164 9.68355 23.8241 9.50134 23.9964Z" fill="#F7A6FF"/>
</svg>
