<svg width="42" height="46" viewBox="0 0 42 46" fill="none" xmlns="http://www.w3.org/2000/svg">
<path d="M20.9417 12.7725C22.0713 12.7725 22.9871 11.8567 22.9871 10.7271C22.9871 9.5974 22.0713 8.68164 20.9417 8.68164C19.812 8.68164 18.8962 9.5974 18.8962 10.7271C18.8962 11.8567 19.812 12.7725 20.9417 12.7725Z" fill="#8E83DD"/>
<path d="M8.66919 33.2266H33.2141V37.3174H8.66919V33.2266Z" fill="#8E83DD"/>
<path d="M16.8508 22.6518L22.5616 28.3667L30.6042 20.318L33.2141 22.9995V14.8179H25.0325L27.712 17.4258L22.5596 22.5782L16.8508 16.8633L8.66919 25.0449L11.5614 27.9371L16.8508 22.6518Z" fill="#8E83DD"/>
<path d="M35.2595 4.5918H28.5138C28.3129 4.28937 28.0944 3.99909 27.8592 3.7225L27.8388 3.69795C26.336 1.9476 24.2216 0.837005 21.9275 0.593021C21.2761 0.468993 20.6072 0.468993 19.9558 0.593021C17.6617 0.837005 15.5473 1.9476 14.0445 3.69795L14.0241 3.7225C13.789 3.99843 13.5704 4.28802 13.3695 4.58975V4.5918H6.62378C4.99685 4.59342 3.43702 5.24044 2.2866 6.39085C1.13619 7.54127 0.489173 9.1011 0.487549 10.728L0.487549 39.3638C0.489173 40.9907 1.13619 42.5505 2.2866 43.7009C3.43702 44.8514 4.99685 45.4984 6.62378 45.5H35.2595C36.8865 45.4984 38.4463 44.8514 39.5967 43.7009C40.7471 42.5505 41.3941 40.9907 41.3958 39.3638V10.728C41.3941 9.1011 40.7471 7.54127 39.5967 6.39085C38.4463 5.24044 36.8865 4.59342 35.2595 4.5918ZM37.3049 39.3638C37.3049 39.9062 37.0894 40.4265 36.7058 40.8101C36.3223 41.1937 35.802 41.4092 35.2595 41.4092H6.62378C6.08147 41.4086 5.56153 41.193 5.17805 40.8095C4.79458 40.426 4.57891 39.9061 4.57837 39.3638L4.57837 10.728C4.57891 10.1857 4.79458 9.66577 5.17805 9.2823C5.56153 8.89883 6.08147 8.68316 6.62378 8.68262H15.9304C16.1651 7.52667 16.7923 6.48741 17.7055 5.74093C18.6188 4.99446 19.7621 4.58667 20.9417 4.58667C22.1212 4.58667 23.2645 4.99446 24.1778 5.74093C25.091 6.48741 25.7182 7.52667 25.9529 8.68262L35.2595 8.68262C35.8018 8.68316 36.3218 8.89883 36.7052 9.2823C37.0887 9.66577 37.3044 10.1857 37.3049 10.728V39.3638Z" fill="#8E83DD"/>
</svg>
